<svg id="Capa_1" enable-background="new 0 0 512 512" height="512" viewBox="0 0 512 512" width="512" xmlns="http://www.w3.org/2000/svg"><g><path d="m32.364 226.391v-139.719h63.668v72.168z" fill="#9b5e34"/><g><path d="m255.731 41.961-255.731 270.733v41.302l10 18.203-10 11.797v41.304l10 15-10 15v56.298h59.867l68.886-10 68.885 10h58.362l20-174.732-20-294.626z" fill="#9b5e34"/><path d="m512 312.694-256-270.454v469.358h256v-56.298l-10-15 10-15v-41.304l-10-15 10-15z" fill="#724435"/></g><path d="m184.059 383.996h71.941l10-15-10-15h-71.941z" fill="#724435"/><path d="m256 353.996h256v30h-256z" fill="#5b362a"/><path d="m333.308 297.694h100.58v142.606h-100.58z" fill="#9b5e34"/><g fill="#724435"><path d="m0 425.3h64.198v30h-64.198z"/><path d="m0 353.996h64.198v30h-64.198z"/><path d="m161.62 140.09-28.772 30h123.152l10-13.559-10-16.441z"/></g><path d="m350.041 140.09h-94.041v30h122.874z" fill="#5b362a"/><path d="m93.237 211.39-28.772 30h191.535l10-15-10-15z" fill="#724435"/><path d="m418.567 211.39h-162.567v30h191.399z" fill="#5b362a"/><path d="m192.599 455.3h63.401l10-15-10-15h-63.401z" fill="#724435"/><path d="m256 425.3h256v30h-256z" fill="#5b362a"/><path d="m197.638 511.866v-203.259h-137.771v203.259" fill="#c47e4e"/><path d="m24.852 282.694-24.852 25.913v4.087h256l10-15-10-15z" fill="#724435"/><path d="m512 308.607-24.905-25.913h-231.095v30h256z" fill="#5b362a"/><path d="m253.452.134-253.452 224.819v83.654l253.452-224.819h2.548l10-41.827-10-41.827z" fill="#c47e4e"/><path d="m259.073.134h-3.073v83.654h3.073l252.927 224.819v-83.654z" fill="#9b5e34"/></g></svg>